<svg id="Layer_1" data-name="Layer 1" xmlns="http://www.w3.org/2000/svg" viewBox="0 0 487.6 487.6"><defs><style>.cls-1{fill:#3544b1;}</style></defs><path class="cls-1" d="M298.86,469.57C299,334.92,408.33,225.91,543,226.08S786.64,335.55,786.46,470.2,677.19,713.68,542.66,713.68c-134.72-.07-243.87-109.35-243.8-244.07Zm238.86,83.48a239,239,0,0,1-56.34-5,43.08,43.08,0,0,1-30.78-24.75q-8.27-19.06-8-58.82A374.92,374.92,0,0,1,445.2,423q2.39-20.08,4.76-33.11l1.67-8.63a4.82,4.82,0,0,0,0-.76,5,5,0,0,0-4.09-4.9l-31.45-4.9h-.68a5,5,0,0,0-4.81,3.82c-.54,2-.85,3.51-1.79,8.31-1.8,9.26-3.46,18.29-5.31,31.46A409.48,409.48,0,0,0,400,457.42a220.41,220.41,0,0,0,0,30.19q1.11,40,13.74,63.94T456.48,586q30.15,10.51,84,10.29H545q53.91.22,84-10.29t42.78-34.42q12.63-23.94,13.75-63.94a223.65,223.65,0,0,0,0-30.19A409.5,409.5,0,0,0,682,414.29c-1.84-13-3.51-22-5.3-31.46-1-4.8-1.26-6.29-1.8-8.31a4.93,4.93,0,0,0-4.81-3.82h-.81l-31.45,4.9a4.94,4.94,0,0,0-4.13,4.9,4.82,4.82,0,0,0,0,.76l1.66,8.63Q637.72,403,640.15,423a379.81,379.81,0,0,1,2.56,41.43q.4,39.68-8,58.77A43.09,43.09,0,0,1,604.09,548a238.71,238.71,0,0,1-56.3,5.08Z" transform="translate(-298.86 -226.08)"/></svg>